# This file uses centimeters as units for non-parametric coordinates.

mtllib door.mtl
g default
v -6.116591 10.204582 26.205269
v 4.132740 10.204582 24.674694
v 3.206263 22.684918 22.162816
v -0.652321 24.712207 23.704054
v -4.665691 22.648590 23.072904
v 3.473224 17.576993 23.188911
v -5.136980 17.576993 24.316638
v -7.588385 3.763995 28.750272
v 5.923721 3.763995 27.407088
v 4.690728 7.723825 25.872977
v -6.444617 7.723825 27.605573
v 1.276978 23.891943 22.933431
v -2.659006 23.891933 23.388477
v -4.989418 17.498912 25.202660
v -5.932446 10.401848 27.020754
v -4.535732 22.381094 24.005369
v -6.248220 8.013742 28.368764
v -7.360977 4.201799 29.470697
v -2.603997 23.578003 24.309159
v -0.672254 24.367638 24.612956
v 1.184989 23.578012 23.871111
v 3.042217 22.416065 23.129277
v 3.299208 17.498912 24.117044
v 3.934098 10.401848 25.547336
v 4.471235 8.013742 26.700872
v 5.658543 4.201799 28.177689
v -4.107611 16.805833 24.663116
v -4.860954 11.136177 26.115531
v -3.994115 16.745812 25.344509
v -4.719350 11.287878 26.742664
v -3.745160 20.706079 23.706638
v -3.645237 20.500381 24.423723
v -5.113225 9.228380 27.192435
v -5.751580 6.183126 28.072737
v -4.962190 9.451370 27.779359
v -5.576731 6.519811 28.626766
v -2.201956 21.662271 23.949325
v -2.159642 21.420820 24.657362
v -0.658734 22.293079 24.192013
v -0.674067 22.028091 24.890994
v 0.824972 21.662271 23.599372
v 0.754221 21.420820 24.320484
v 2.308667 20.734041 23.006735
v 2.182509 20.527265 23.749979
v 2.513965 16.805833 23.795834
v 2.380142 16.745774 24.509602
v 3.021173 11.136177 24.938469
v 2.868396 11.287878 25.609568
v 3.450280 9.228380 25.859991
v 3.281476 9.451344 26.496676
v 4.391430 6.183126 27.039784
v 4.187488 6.519811 27.632405
v -0.698978 0.799203 28.824198
v -0.680091 0.361397 28.078679
v -0.680085 6.183126 27.556253
v -0.694616 6.519811 28.129585
v -2.387104 15.516913 25.242201
v -2.762299 12.693237 25.965553
v -2.330579 15.487021 25.855297
v -2.691773 12.768792 26.551631
v -2.206594 17.459370 24.765842
v -2.156830 17.356923 25.396716
v -2.887935 11.743095 26.501891
v -3.205859 10.226457 26.940308
v -2.812712 11.854150 27.067932
v -3.118775 10.394132 27.216227
v -1.438028 17.935581 24.886710
v -1.416951 17.815331 25.513070
v -0.669454 18.249747 25.007584
v -0.677086 18.117771 25.355701
v 0.069480 17.935585 24.712424
v 0.034247 17.815331 25.345293
v 0.808413 17.473294 24.417265
v 0.745583 17.370316 25.061165
v 0.910654 15.516913 24.810273
v 0.844008 15.487003 25.439485
v 1.163265 12.693237 25.379341
v 1.087174 12.768792 25.987299
v 1.376973 11.743095 25.838287
v 1.292905 11.854141 26.429111
v 1.845697 10.226457 26.425864
v 1.744125 10.394132 26.721007
v -0.680086 10.226457 26.683084
v -0.687322 10.394132 26.968619
v -5.178025 16.079499 25.566282
v -4.139161 15.654224 25.624138
v -5.555235 13.240674 26.293517
v -4.429256 13.471050 26.183401
v -0.690153 17.815331 25.429045
v -0.704905 17.363621 25.228854
v -0.706345 15.487012 25.642551
v -0.707775 12.768792 26.255350
v -0.694955 11.854146 26.738419
v -0.652239 17.935585 24.795864
v -0.633163 17.466637 24.583934
v -0.637139 15.516913 25.012996
v -0.643840 12.693240 25.649200
v -0.664703 11.743095 26.155964
vt 0.421436 0.454254
vt 0.647731 0.425996
vt 0.775956 0.815195
vt 0.773243 0.794776
vt 0.767816 0.753939
vt 0.762390 0.713102
vt 0.803354 0.412768
vt 0.782482 0.885426
vt 0.223670 0.488211
vt 0.345290 0.463714
vt 0.757848 0.678749
vt 0.746352 0.623913
vt 0.841963 0.351538
vt 0.810271 0.902644
vt 0.867598 0.290205
vt 0.838059 0.914003
vt 0.842912 0.230850
vt 0.864776 0.902644
vt 0.806368 0.171401
vt 0.891493 0.885929
vt 0.649808 0.161983
vt 0.895190 0.815195
vt 0.423909 0.139981
vt 0.904323 0.713102
vt 0.347976 0.122274
vt 0.912050 0.678748
vt 0.226852 0.083793
vt 0.928997 0.623913
vt 0.383898 0.504027
vt 0.678155 0.467281
vt 0.675088 0.461373
vt 0.753810 0.802732
vt 0.880516 0.450081
vt 0.869891 0.444815
vt 0.126639 0.560689
vt 0.284883 0.516327
vt 0.296504 0.508588
vt 0.144167 0.551759
vt 0.391821 0.496746
vt 0.930720 0.370461
vt 0.918220 0.368169
vt 0.964055 0.290709
vt 0.950310 0.291395
vt 0.931955 0.213527
vt 0.919409 0.217096
vt 0.884434 0.136225
vt 0.873663 0.142681
vt 0.680856 0.123978
vt 0.677688 0.130892
vt 0.387113 0.095369
vt 0.394916 0.103351
vt 0.288376 0.072343
vt 0.299867 0.081185
vt 0.130878 0.021939
vt 0.956514 0.580553
vt 0.746754 0.749630
vt 0.837593 0.516906
vt -0.006860 0.284177
vt 0.225261 0.286003
vt 0.837675 0.623913
vt 0.596879 0.356992
vt 0.484177 0.371066
vt 0.052135 0.690239
vt 0.070916 0.831578
vt 0.674385 0.350404
vt 0.079951 0.928808
vt 0.446254 0.375778
vt 0.385683 0.387978
vt 0.403211 0.660392
vt 0.045847 0.642680
vt 0.693613 0.319910
vt 0.118422 0.952644
vt 0.706381 0.289364
vt 0.156893 0.968370
vt 0.694086 0.259803
vt 0.193880 0.952644
vt 0.675886 0.230196
vt 0.230867 0.929504
vt 0.597914 0.225505
vt 0.235985 0.831578
vt 0.485408 0.214548
vt 0.248629 0.690239
vt 0.447592 0.205729
vt 0.259327 0.642679
vt 0.387268 0.186564
vt 0.282789 0.566763
vt 0.386475 0.287271
vt 0.156361 0.566763
vt 0.446951 0.287134
vt 0.156214 0.952644
vt 0.155446 0.929156
vt 0.155372 0.831578
vt 0.155297 0.690239
vt 0.155964 0.642680
vt 0.693860 0.288579
vt 0.675168 0.287672
vt 0.597428 0.287219
vt 0.484842 0.286600
vt 0.505128 0.482597
vt 0.739699 0.696528
vt 0.618435 0.468447
vt 0.010589 0.285067
vt 0.148251 0.032650
vt 0.712977 0.580553
vt 0.934305 0.651857
vt 0.924257 0.696528
vt 0.912381 0.829282
vt 0.907574 0.921260
vt 0.872834 0.942995
vt 0.838093 0.957765
vt 0.801959 0.942995
vt 0.765825 0.920606
vt 0.733792 0.651857
vt 0.757338 0.829282
vt 0.950310 0.291395
vt 0.964055 0.290709
vt 0.446951 0.287134
vt 0.386475 0.287271
vt 0.484842 0.286600
vt 0.597428 0.287219
vt 0.675168 0.287672
vt 0.693860 0.288579
vt 0.706381 0.289364
vt -0.006860 0.284177
vt 0.010589 0.285067
vt 0.470921 0.660392
vt 0.538631 0.660392
vt 0.029933 0.566763
vt 0.526066 0.701049
vt 0.520337 0.726520
vt 0.513565 0.802216
vt 0.510824 0.854661
vt 0.491015 0.867054
vt 0.471206 0.875476
vt 0.450603 0.867054
vt 0.429999 0.854288
vt 0.415102 0.726520
vt 0.411734 0.701050
vt 0.425161 0.802216
vt 0.366717 0.746076
vt 0.514667 0.437775
vt 0.427529 0.448656
vt 0.358639 0.685280
vt 0.374796 0.806872
vt 0.601804 0.426893
vt 0.470718 0.552501
vt 0.238681 0.286688
vt 0.240212 0.092030
vt 0.606673 0.552501
vt 0.237149 0.481346
vt 0.334763 0.552501
vt 0.356813 0.129074
vt 0.581443 0.634137
vt 0.429909 0.146120
vt 0.569939 0.685280
vt 0.647371 0.167300
vt 0.556343 0.837269
vt 0.798084 0.176366
vt 0.550839 0.942575
vt 0.833263 0.233595
vt 0.511065 0.967458
vt 0.857028 0.290734
vt 0.471290 0.984369
vt 0.832349 0.349775
vt 0.429921 0.967458
vt 0.795184 0.408720
vt 0.388550 0.941826
vt 0.354228 0.457762
vt 0.351877 0.634138
vt 0.645373 0.421452
vt 0.378835 0.837271
vt 0.746754 0.749630
vt 0.767816 0.753939
vt 0.753810 0.802732
vt 0.773243 0.794776
vt 0.837675 0.623913
vt 0.837593 0.516906
vt 0.956514 0.580553
vt 0.928997 0.623913
vt 0.934305 0.651857
vt 0.912050 0.678748
vt 0.924257 0.696528
vt 0.904323 0.713102
vt 0.912381 0.829282
vt 0.895190 0.815195
vt 0.907574 0.921260
vt 0.891493 0.885929
vt 0.872834 0.942995
vt 0.864776 0.902644
vt 0.838093 0.957765
vt 0.838059 0.914003
vt 0.801959 0.942995
vt 0.810271 0.902644
vt 0.712977 0.580553
vt 0.746352 0.623913
vt 0.733792 0.651857
vt 0.757848 0.678749
vt 0.765825 0.920606
vt 0.782482 0.885426
vt 0.739699 0.696528
vt 0.762390 0.713102
vt 0.757338 0.829282
vt 0.775956 0.815195
vn 0.967295 -0.184836 -0.173713
vn 0.972436 -0.153543 -0.175481
vn 0.971108 -0.161230 -0.175938
vn 0.968770 -0.173984 -0.176675
vn 0.968770 -0.173984 -0.176675
vn 0.966921 -0.187448 -0.172995
vn 0.863031 -0.440797 -0.246730
vn 0.909080 -0.349397 -0.226927
vn 0.459102 0.687477 -0.562672
vn 0.959183 -0.234785 -0.157621
vn 0.959190 -0.234741 -0.157640
vn 0.530639 0.639613 -0.556163
vn 0.474436 -0.824136 -0.309371
vn 0.471354 -0.825763 -0.309742
vn -0.074448 -0.931917 -0.354948
vn -0.003180 -0.935026 -0.354564
vn -0.546347 -0.776621 -0.313632
vn -0.527772 -0.788502 -0.315786
vn -0.903561 -0.347856 -0.250148
vn -0.917329 -0.315087 -0.243368
vn -0.975438 -0.108010 -0.191975
vn -0.974692 -0.113939 -0.192335
vn -0.968921 -0.166518 -0.182930
vn -0.968244 -0.171858 -0.181569
vn -0.938182 -0.317663 -0.137493
vn -0.938084 -0.318018 -0.137343
vn -0.683078 0.508679 -0.524071
vn -0.597662 0.591198 -0.541557
vn -0.711169 -0.192839 -0.676055
vn -0.657196 -0.111533 -0.745422
vn 0.128547 -0.258560 -0.957404
vn 0.151236 -0.294722 -0.943540
vn -0.735817 0.245409 0.631148
vn -0.870779 0.227381 0.435937
vn 0.045204 0.242265 0.969157
vn 0.041430 0.237535 0.970495
vn -0.444051 0.131938 -0.886234
vn 0.180788 -0.226567 -0.957070
vn -0.684281 0.307156 0.661373
vn -0.049782 0.194356 0.979667
vn -0.349733 -0.321967 -0.879786
vn -0.632339 -0.093858 -0.768985
vn 0.254377 -0.459187 -0.851140
vn -0.107627 -0.140571 -0.984203
vn -0.447596 0.367095 0.815414
vn -0.106428 0.003629 0.994314
vn 0.145039 0.167727 0.975106
vn -0.104001 0.452875 0.885487
vn -0.782603 0.335681 0.524262
vn -0.009478 0.311224 0.950289
vn 0.013211 0.260193 -0.965466
vn 0.248780 -0.188000 -0.950139
vn -0.346328 0.421522 0.838079
vn -0.212434 0.112915 0.970630
vn -0.091261 0.406480 -0.909090
vn -0.107624 -0.196305 -0.974619
vn 0.088594 0.477249 0.874291
vn 0.111203 0.117194 0.986863
vn -0.235340 0.247176 -0.939957
vn -0.443659 -0.172711 -0.879396
vn 0.504173 0.381962 0.774541
vn 0.416941 0.104822 0.902869
vn 0.309242 0.110356 -0.944559
vn -0.422629 -0.188981 -0.886381
vn 0.771704 0.262517 0.579274
vn 0.308809 0.167137 0.936324
vn 0.592072 -0.116217 -0.797461
vn -0.395099 -0.212015 -0.893838
vn 0.745911 0.184891 0.639868
vn 0.233333 0.210139 0.949419
vn 0.673957 -0.188855 -0.714224
vn -0.415932 -0.248615 -0.874752
vn 0.802336 0.277435 0.528475
vn 0.256219 0.242465 0.935715
vn 0.434476 -0.238734 -0.868468
vn -0.546420 -0.456860 -0.701929
vn 0.740772 0.421393 0.523150
vn 0.425708 0.462946 0.777466
vn 0.167383 -0.292642 -0.941458
vn -0.145714 -0.177134 -0.973340
vn 0.298828 0.013849 0.954207
vn 0.101980 0.204564 0.973526
vn 0.092041 -0.140099 0.985850
vn -0.083565 -0.381051 -0.920770
vn -0.098622 -0.116844 -0.988241
vn -0.051599 0.860586 -0.506684
vn -0.051599 0.860586 -0.506685
vn 0.097774 0.158499 0.982506
vn 0.132426 -0.253718 -0.958170
vn 0.028883 -0.246469 -0.968720
vn 0.051253 -0.302862 -0.951655
vn 0.226677 -0.391426 -0.891854
vn -0.104958 0.251694 0.962099
vn -0.098829 0.259246 0.960742
vn -0.098829 0.259246 0.960742
vn -0.200648 0.390611 0.898423
vn -0.034983 0.300978 0.952989
vn -0.013911 0.244959 0.969434
vn 0.231166 -0.201009 -0.951923
vn 0.118486 -0.219198 -0.968459
vn -0.219428 0.192171 0.956515
vn -0.103935 0.215440 0.970970
vn 0.069501 -0.320881 -0.944566
vn 0.069822 -0.414118 -0.907541
vn -0.074492 -0.234635 -0.969225
vn -0.089401 -0.216023 -0.972287
vn 0.127019 0.234569 0.963765
vn 0.105771 0.276966 0.955041
vn 0.123837 0.245297 0.961506
vn -0.037602 0.351441 0.935455
vn 0.243889 -0.189254 -0.951158
vn 0.221647 -0.137477 -0.965387
vn -0.169750 0.167645 0.971123
vn -0.171007 0.122900 0.977575
vn -0.120158 -0.195986 -0.973217
vn -0.107960 -0.184055 -0.976969
vn 0.116328 0.162149 0.979885
vn 0.112961 0.163247 0.980097
vn -0.441074 -0.173571 -0.880527
vn -0.423940 -0.128173 -0.896575
vn 0.382053 0.157337 0.910649
vn 0.378904 0.112684 0.918550
vn -0.442487 -0.176733 -0.879188
vn -0.370751 -0.186949 -0.909722
vn 0.434336 0.169717 0.884618
vn 0.355484 0.184357 0.916321
vn -0.399384 -0.206251 -0.893282
vn -0.303577 -0.213367 -0.928610
vn 0.285888 0.213226 0.934239
vn 0.377174 0.206633 0.902797
vn -0.478715 -0.342289 -0.808499
vn -0.324252 -0.266851 -0.907552
vn 0.306598 0.266519 0.913764
vn 0.459328 0.343534 0.819148
vn -0.533825 -0.446321 -0.718212
vn -0.346712 -0.436364 -0.830288
vn 0.322602 0.374808 0.869164
vn 0.392214 0.401634 0.827562
vn -0.134538 -0.231016 -0.963603
vn -0.205920 -0.286476 -0.935697
vn 0.155748 0.300257 0.941057
vn 0.112764 0.292186 0.949690
vn -0.102960 -0.231947 -0.967264
vn -0.099054 -0.210049 -0.972660
vn 0.097095 0.285522 0.953441
vn 0.102170 0.261697 0.959727
vn -0.124531 -0.377989 -0.917396
vn 0.110435 -0.304688 0.946028
vn -0.819328 0.242013 0.519741
vn 0.045211 0.242264 0.969156
vn 0.120460 0.120429 0.985386
vn 0.129903 0.216531 0.967595
vn 0.136419 0.293262 0.946249
vn 0.129264 0.276490 0.952284
vn -0.104383 0.435413 -0.894159
vn -0.120458 -0.120539 -0.985373
vn -0.129893 -0.216528 -0.967597
vn -0.136417 -0.293090 -0.946303
s 1
g polySurface4 pCylinder1
usemtl aiStandardSurface3SG
f 28/1/1 27/2/2 29/170/3 86/145/4 88/141/5 30/142/6
f 27/2/2 31/7/7 32/166/8 29/170/3
f 34/9/9 33/10/10 35/168/11 36/150/12
f 33/10/10 28/1/1 30/142/6 35/168/11
f 31/7/7 37/13/13 38/164/14 32/166/8
f 37/13/13 39/15/15 40/162/16 38/164/14
f 39/15/15 41/17/17 42/160/18 40/162/16
f 41/17/17 43/19/19 44/158/20 42/160/18
f 43/19/19 45/21/21 46/156/22 44/158/20
f 45/21/21 47/23/23 48/154/24 46/156/22
f 47/23/23 49/25/25 50/152/26 48/154/24
f 49/25/25 51/27/27 52/148/28 50/152/26
s 2
f 1/29/29 7/30/30 27/2/31 28/1/32
f 14/202/33 85/174/34 86/4/35 29/3/36
f 7/30/30 5/33/37 31/7/38 27/2/31
f 16/198/39 14/114/33 29/203/36 32/8/40
f 8/35/41 11/36/42 33/10/43 34/9/44
f 17/196/45 18/104/46 36/195/47 35/11/48
f 11/36/42 1/29/29 28/1/32 33/10/43
f 15/200/49 17/113/45 35/197/48 30/6/50
f 5/33/37 13/40/51 37/13/52 31/7/38
f 19/192/53 16/112/39 32/199/40 38/14/54
f 13/40/51 4/42/55 39/15/56 37/13/52
f 20/190/57 19/111/53 38/193/54 40/16/58
f 4/116/55 12/44/59 41/17/60 39/15/56
f 21/188/61 20/110/57 40/191/58 42/18/62
f 12/44/59 3/46/63 43/19/64 41/17/60
f 22/186/65 21/109/61 42/189/62 44/20/66
f 3/46/63 6/48/67 45/21/68 43/19/64
f 23/184/69 22/108/65 44/187/66 46/22/70
f 6/48/67 2/50/71 47/23/72 45/21/68
f 24/182/73 23/107/69 46/185/70 48/24/74
f 2/50/71 10/52/75 49/25/76 47/23/72
f 25/180/77 24/106/73 48/183/74 50/26/78
f 10/52/75 9/54/79 51/27/80 49/25/76
f 26/178/81 25/105/77 50/181/78 52/28/82
f 20/115/57 4/42/55 13/40/51 19/41/53
f 53/102/83 54/124/84 9/54/79 26/103/81
f 54/124/84 55/59/85 51/27/80 9/54/79
s 1
f 55/59/86 56/147/87 52/148/28 51/27/27
s 2
f 56/176/88 53/57/83 26/55/81 52/179/82
f 18/38/46 8/35/41 54/58/84 53/125/83
f 8/35/41 34/9/44 55/59/85 54/58/84
s 1
f 34/9/9 36/150/12 56/147/87 55/59/86
s 2
f 36/12/47 18/194/46 53/177/83 56/60/88
s 5
f 27/2/89 57/61/90 58/62/91 28/1/92
s 6
f 29/171/93 86/144/94 88/140/95 30/143/96 60/137/97 59/139/98
s 5
f 31/7/99 61/65/100 57/61/90 27/2/89
s 6
f 32/167/101 29/171/93 59/139/98 62/136/102
s 5
f 33/10/103 63/67/104 64/68/105 34/9/106
s 6
f 35/169/107 36/151/108 66/69/109 65/138/110
s 5
f 28/1/92 58/62/91 63/67/104 33/10/103
s 6
f 30/143/96 35/169/107 65/138/110 60/137/97
s 5
f 37/13/111 67/71/112 61/65/100 31/7/99
s 6
f 38/165/113 32/167/101 62/136/102 68/135/114
s 5
f 39/15/115 69/123/116 67/71/112 37/13/111
s 6
f 40/163/117 38/165/113 68/135/114 70/134/118
s 5
f 41/17/119 71/75/120 69/73/116 39/15/115
s 6
f 42/161/121 40/163/117 70/134/118 72/133/122
s 5
f 43/19/123 73/77/124 71/75/120 41/17/119
s 6
f 44/159/125 42/161/121 72/133/122 74/132/126
s 5
f 43/19/123 45/21/127 75/79/128 73/77/124
s 6
f 44/159/125 74/132/126 76/131/129 46/157/130
s 5
f 45/21/127 47/23/131 77/81/132 75/79/128
s 6
f 46/157/130 76/131/129 78/130/133 48/155/134
s 5
f 47/23/131 49/25/135 79/83/136 77/81/132
s 6
f 48/155/134 78/130/133 80/129/137 50/153/138
s 5
f 49/25/135 51/27/139 81/85/140 79/83/136
s 6
f 50/153/138 80/129/137 82/127/141 52/149/142
s 5
f 34/9/106 64/68/105 83/87/143 55/59/144
s 6
f 36/151/108 56/146/145 84/126/146 66/69/109
s 5
f 55/59/144 83/118/143 81/85/140 51/27/139
s 6
f 56/146/145 52/149/142 82/127/141 84/126/146
s 5
f 63/67/104 98/117/147 83/87/143 64/68/105
s 6
f 70/74/118 89/90/148 72/76/122
s 2
f 86/175/35 85/32/34 87/172/149 88/5/150
f 88/173/150 87/56/149 15/100/49 30/201/50
s 6
f 90/91/151 91/92/152 76/80/129 74/78/126
f 89/90/148 90/91/151 74/78/126 72/76/122
f 91/92/152 92/93/153 78/82/133 76/80/129
f 92/93/153 93/94/154 80/84/137 78/82/133
f 82/86/141 80/84/137 93/94/154 84/88/146
f 68/72/114 89/90/148 70/74/118
f 62/66/102 90/91/151 89/90/148 68/72/114
f 59/64/98 91/92/152 90/91/151 62/66/102
f 60/63/97 92/93/153 91/92/152 59/64/98
f 65/70/110 93/94/154 92/93/153 60/63/97
f 84/88/146 93/94/154 65/70/110 66/128/109
s 5
f 94/122/155 95/121/156 61/65/100 67/71/112
f 69/123/116 94/122/155 67/71/112
f 61/65/100 95/121/156 96/120/157 57/61/90
f 57/61/90 96/120/157 97/119/158 58/62/91
f 58/62/91 97/119/158 98/117/147 63/67/104
f 71/75/120 94/95/155 69/73/116
f 71/75/120 73/77/124 95/96/156 94/95/155
f 96/97/157 95/96/156 73/77/124 75/79/128
f 97/98/158 96/97/157 75/79/128 77/81/132
f 98/89/147 97/98/158 77/81/132 79/83/136
f 83/118/143 98/89/147 79/83/136 81/85/140
s 2
f 6/48/67 3/46/63 22/47/65 23/49/69
f 19/41/53 13/40/51 5/33/37 16/34/39
f 16/34/39 5/33/37 7/30/30 14/31/33
f 21/45/61 12/44/59 4/116/55 20/43/57
f 22/47/65 3/46/63 12/44/59 21/45/61
f 14/31/33 7/30/30 1/29/29 15/39/49 87/99/149 85/101/34
f 17/37/45 11/36/42 8/35/41 18/38/46
f 15/39/49 1/29/29 11/36/42 17/37/45
f 10/52/75 25/53/77 26/103/81 9/54/79
f 2/50/71 24/51/73 25/53/77 10/52/75
f 6/48/67 23/49/69 24/51/73 2/50/71
